<?xml version="1.0" encoding="UTF-8" standalone="no"?>
<!DOCTYPE svg PUBLIC "-//W3C//DTD SVG 20010904//EN"
              "http://www.w3.org/TR/2001/REC-SVG-20010904/DTD/svg10.dtd">

<svg xmlns="http://www.w3.org/2000/svg"
     width="73.8232mm" height="69.2516mm"
     viewBox="0 0 436 409">
  <path id="Selection #1"
        fill="#144587" stroke="black" stroke-width="7"
        d="M 197.00,6.00
           C 197.00,6.00 197.00,120.00 197.00,120.00
             197.00,120.00 195.98,127.59 195.98,127.59
             195.98,127.59 189.00,131.72 189.00,131.72
             189.00,131.72 174.00,138.28 174.00,138.28
             174.00,138.28 102.00,170.00 102.00,170.00
             102.00,170.00 107.00,182.00 107.00,182.00
             107.00,182.00 152.00,162.86 152.00,162.86
             152.00,162.86 197.00,143.00 197.00,143.00
             197.00,143.00 197.00,194.00 197.00,194.00
             197.15,201.96 198.86,201.00 211.00,201.00
             211.00,201.00 211.00,146.00 211.00,146.00
             211.00,143.70 210.79,140.26 212.02,138.27
             213.99,135.09 227.01,130.28 231.00,128.58
             231.00,128.58 277.00,108.58 277.00,108.58
             277.00,108.58 295.00,101.00 295.00,101.00
             293.26,93.49 291.96,94.33 297.00,89.00
             297.00,89.00 277.00,68.00 277.00,68.00
             277.00,68.00 253.00,44.04 253.00,44.04
             253.00,44.04 236.00,28.00 236.00,28.00
             236.00,28.00 219.00,11.00 219.00,11.00
             219.00,11.00 210.00,3.17 210.00,3.17
             210.00,3.17 197.00,6.00 197.00,6.00 Z
           M 212.00,23.00
           C 212.00,23.00 259.00,69.00 259.00,69.00
             259.00,69.00 281.00,92.00 281.00,92.00
             281.00,92.00 237.00,111.28 237.00,111.28
             237.00,111.28 211.00,122.00 211.00,122.00
             211.00,122.00 211.00,54.00 211.00,54.00
             211.00,54.00 212.00,23.00 212.00,23.00 Z
           M 297.00,191.00
           C 297.00,191.00 292.28,234.00 292.28,234.00
             292.28,234.00 286.00,289.00 286.00,289.00
             286.00,289.00 236.00,260.00 236.00,260.00
             238.94,253.07 240.96,248.71 241.49,241.00
             241.79,236.50 240.53,230.22 238.94,226.00
             227.19,195.02 183.25,193.58 169.88,224.00
             167.76,228.80 167.07,231.78 167.00,237.00
             166.90,245.92 166.81,248.82 171.00,257.00
             171.00,257.00 133.00,278.40 133.00,278.40
             133.00,278.40 116.00,286.95 116.00,286.95
             116.00,286.95 109.00,283.13 109.00,283.13
             109.00,283.13 95.00,272.87 95.00,272.87
             95.00,272.87 62.00,248.37 62.00,248.37
             62.00,248.37 41.00,234.00 41.00,234.00
             41.00,234.00 38.00,240.00 38.00,240.00
             38.00,240.00 30.00,238.00 30.00,238.00
             30.00,238.00 20.42,276.00 20.42,276.00
             20.42,276.00 7.63,326.00 7.63,326.00
             7.63,326.00 0.00,359.00 0.00,359.00
             5.41,360.44 5.85,361.49 9.00,366.00
             9.00,366.00 43.00,346.42 43.00,346.42
             43.00,346.42 85.00,322.20 85.00,322.20
             85.00,322.20 106.00,310.15 106.00,310.15
             106.00,310.15 115.00,306.35 115.00,306.35
             115.00,306.35 133.00,318.42 133.00,318.42
             133.00,318.42 177.00,351.12 177.00,351.12
             177.00,351.12 192.00,362.11 192.00,362.11
             192.00,362.11 198.83,365.13 198.83,365.13
             198.83,365.13 207.00,357.00 207.00,357.00
             202.45,351.22 183.03,337.98 176.00,332.85
             176.00,332.85 128.00,298.00 128.00,298.00
             128.00,298.00 163.00,277.15 163.00,277.15
             168.04,274.27 175.08,271.86 177.00,266.00
             196.26,281.33 214.81,280.66 233.00,264.00
             232.16,265.85 230.47,268.88 230.87,270.90
             231.55,274.33 240.91,278.63 244.00,280.42
             244.00,280.42 272.00,296.72 272.00,296.72
             275.24,298.56 282.04,301.65 283.28,305.10
             284.41,307.66 283.45,311.32 283.28,314.00
             283.28,314.00 281.28,331.00 281.28,331.00
             281.28,331.00 276.84,371.00 276.84,371.00
             276.84,371.00 274.00,395.00 274.00,395.00
             279.88,395.55 281.43,396.14 283.00,402.00
             283.00,402.00 312.00,394.88 312.00,394.88
             312.00,394.88 371.00,378.58 371.00,378.58
             371.00,378.58 403.00,370.00 403.00,370.00
             402.14,362.96 402.24,363.57 405.00,357.00
             405.00,357.00 329.00,313.42 329.00,313.42
             329.00,313.42 309.00,301.85 309.00,301.85
             309.00,301.85 299.94,295.62 299.94,295.62
             299.94,295.62 299.94,288.00 299.94,288.00
             299.94,288.00 301.93,270.00 301.93,270.00
             301.93,270.00 306.84,227.00 306.84,227.00
             306.84,227.00 311.00,193.00 311.00,193.00
             311.00,193.00 297.00,191.00 297.00,191.00 Z
           M 203.00,214.38
           C 215.02,214.50 224.85,221.17 228.21,233.00
             232.25,247.21 221.83,262.81 207.00,263.91
             179.41,265.96 170.16,234.08 189.00,219.53
             193.50,216.06 197.51,215.10 203.00,214.38 Z
           M 42.00,250.00
           C 42.00,250.00 82.00,280.00 82.00,280.00
             87.63,284.02 98.99,291.18 102.00,297.00
             102.00,297.00 44.00,330.28 44.00,330.28
             44.00,330.28 17.00,345.00 17.00,345.00
             17.00,345.00 32.37,284.00 32.37,284.00
             32.37,284.00 42.00,250.00 42.00,250.00 Z
           M 236.00,260.00
           C 236.00,260.00 236.00,261.00 236.00,261.00
             236.00,261.00 235.00,260.00 235.00,260.00
             235.00,260.00 236.00,260.00 236.00,260.00 Z
           M 175.00,262.00
           C 175.00,262.00 175.00,263.00 175.00,263.00
             175.00,263.00 174.00,262.00 174.00,262.00
             174.00,262.00 175.00,262.00 175.00,262.00 Z
           M 177.00,265.00
           C 177.00,265.00 177.00,266.00 177.00,266.00
             177.00,266.00 176.00,265.00 176.00,265.00
             176.00,265.00 177.00,265.00 177.00,265.00 Z
           M 298.00,311.00
           C 298.00,311.00 355.00,344.00 355.00,344.00
             355.00,344.00 383.00,361.00 383.00,361.00
             383.00,361.00 332.00,375.42 332.00,375.42
             332.00,375.42 289.00,387.00 289.00,387.00
             289.00,387.00 293.84,340.00 293.84,340.00
             293.84,340.00 298.00,311.00 298.00,311.00 Z" />
</svg>
